<?xml version="1.0" standalone="no"?><!DOCTYPE svg PUBLIC "-//W3C//DTD SVG 1.1//EN" "http://www.w3.org/Graphics/SVG/1.1/DTD/svg11.dtd"><svg t="1611803436530" class="icon" viewBox="0 0 1024 1024" version="1.1" xmlns="http://www.w3.org/2000/svg" p-id="3632" xmlns:xlink="http://www.w3.org/1999/xlink" width="200" height="200"><defs><style type="text/css"></style></defs><path d="M351.344 568.256A307.584 307.584 0 0 1 207.392 307.2C207.392 137.536 343.76 0 512 0s304.608 137.536 304.608 307.2a307.584 307.584 0 0 1-143.952 261.056C835.424 614.928 952 730.704 952 869.904c0 205.456-880 205.456-880 0 0-139.2 116.576-254.976 279.344-301.648zM512 546.128c130.848 0 236.928-106.976 236.928-238.928S642.848 68.272 512 68.272 275.072 175.248 275.072 307.2s106.08 238.928 236.928 238.928zM884.32 869.92c0-138.08-164.688-255.504-372.32-255.504S139.68 731.84 139.68 869.904c0 114.448 744.64 114.448 744.64 0z" p-id="3633" fill="#e6e6e6"></path></svg>